Coordinates
version=1
nRows=14
nColumns=36
inDegrees=yes

Units are S.I. units (second, meters, Newtons, ...)
If the header above contains a line with 'inDegrees', this indicates whether rotational values are in degrees (yes) or radians (no).

endheader
time	pelvis_tilt	pelvis_list	pelvis_rotation	pelvis_tx	pelvis_ty	pelvis_tz	hip_flexion_r	hip_adduction_r	hip_rotation_r	knee_angle_r	knee_angle_r_beta	ankle_angle_r	subtalar_angle_r	mtp_angle_r	hip_flexion_l	hip_adduction_l	hip_rotation_l	knee_angle_l	knee_angle_l_beta	ankle_angle_l	subtalar_angle_l	mtp_angle_l	lumbar_extension	lumbar_bending	lumbar_rotation	arm_flex_r	arm_add_r	arm_rot_r	elbow_flex_r	pro_sup_r	arm_flex_l	arm_add_l	arm_rot_l	elbow_flex_l	pro_sup_l
      1.45000000	     -2.15360945	      1.19940042	     -0.10502311	      0.24691535	      1.23254158	     -0.56372452	      2.54402535	     -0.90448046	     -0.51990762	      4.93271741	      0.08609216	      6.46129379	     -3.86512467	     -7.49999987	     -2.02481961	     -0.60591853	     -1.14009614	      2.00471731	      0.03498892	      7.72684670	     -1.72424636	     -7.49999987	     -3.51924784	     -2.20047195	     -1.82485053	     -1.46119742	    -14.36822736	     11.16201068	     28.76770682	     93.06753507	    -11.05128333	    -17.85447181	      3.31679371	     26.92785232	     94.98696420
      1.46666670	     -2.23850693	      1.19659363	      0.11305424	      0.24764012	      1.22972964	     -0.56395133	      2.71496221	     -0.86646955	     -0.48221558	      5.22373949	      0.09117145	      6.57834816	     -3.94791132	     -7.49999987	     -1.82530428	     -0.60445055	     -1.00838816	      2.19098173	      0.03823985	      7.73009145	     -1.79172306	     -7.49999987	     -3.63327634	     -2.23555290	     -1.83867559	     -1.80777184	    -14.42201596	     10.79875698	     28.86889161	     93.68009088	    -11.11234162	    -17.85615308	      3.10941755	     27.01985256	     95.45882152
      1.48333330	     -2.38416093	      1.17701434	      0.24787248	      0.24758645	      1.23312033	     -0.56407869	      3.00230401	     -0.82559215	     -0.32864133	      5.54609570	      0.09679763	      6.57759873	     -4.23695679	     -7.49999987	     -1.60164491	     -0.62710267	     -0.98954184	      2.31706652	      0.04044044	      7.81533958	     -1.64154394	     -7.49999987	     -3.65680937	     -2.20767418	     -2.02057231	     -1.75998557	    -14.57824180	     11.75709857	     28.34680973	     91.99327274	    -10.49804302	    -17.70005196	      3.87661137	     26.16611651	     93.80961493
      1.50000000	     -2.39665715	      1.16089317	      0.40425184	      0.24866885	      1.23353496	     -0.56397889	      3.08368222	     -0.77823621	     -0.21921665	      5.68440817	      0.09921164	      6.58071966	     -4.43341296	     -7.49999987	     -1.49998701	     -0.65241727	     -1.10041449	      2.47702078	      0.04323217	      8.04994852	     -1.23315467	     -7.49999987	     -4.11279468	     -2.22748748	     -2.08654415	     -2.16130304	    -14.55111903	     11.52537328	     28.55930781	     89.70721954	    -10.17035925	    -17.46220364	      3.42344276	     26.17832211	     91.41328466
      1.51666670	     -2.82401493	      1.16862926	      0.60982697	      0.24826803	      1.23330519	     -0.56440997	      3.69589281	     -0.78587226	     -0.37749761	      6.01700844	      0.10501661	      6.75373465	     -4.27432327	     -7.49999987	     -0.85331801	     -0.62707132	     -0.82014906	      2.73498928	      0.04773457	      7.95820236	     -1.66651127	     -7.49999987	     -3.90197316	     -2.23998362	     -2.13514575	     -2.38881538	    -14.43471303	     10.39125922	     28.02809423	     93.76030149	     -9.61261452	    -16.93913978	      1.49221120	     25.17234035	     96.64684158
      1.53333330	     -2.99002944	      1.12435223	      0.81250819	      0.24157267	      1.23354245	     -0.56133571	      4.08903685	     -0.72817291	     -0.46352357	      6.40013039	      0.11170335	      6.71425555	     -4.38627797	     -7.49999987	     -0.40223213	     -0.70864885	     -0.75718145	      3.06388604	      0.05347490	      7.90228732	     -1.58339172	     -7.49999987	     -4.39128953	     -2.20654723	     -2.26399248	     -2.44149846	    -14.41143526	     10.39333804	     27.96302259	     93.76980080	     -9.23056463	    -16.93066476	      1.38707948	     25.22001457	     96.64145506
      1.55000000	     -3.68138018	      1.11973911	      1.00143457	      0.24689083	      1.23296552	     -0.55700867	      5.14388021	     -0.68165713	     -0.44933878	      6.91526182	      0.12069409	      6.79104929	     -4.71083564	     -7.49999987	      0.71227131	     -0.76912561	     -0.83489072	      3.63541264	      0.06344992	      8.18951848	     -1.55339452	     -7.49999987	     -4.21212770	     -2.29549387	     -2.04998739	     -2.99469589	    -14.34848849	     10.23287102	     27.78871739	     93.82922072	     -9.01378661	    -16.71399408	      0.53707989	     24.72723311	     96.64774089
      1.56666670	     -3.86097023	      1.11411106	      1.04178528	      0.24868984	      1.23752334	     -0.55697290	      5.36748015	     -0.64533269	     -0.44761874	      6.95367615	      0.12136454	      6.79374854	     -4.71307492	     -7.49999987	      1.01383903	     -0.83141429	     -0.89419438	      3.75322706	      0.06550617	      8.15476392	     -1.56599938	     -7.49999987	     -4.77201141	     -2.34484667	     -2.08477053	     -3.22742147	    -14.31223375	     10.25095957	     27.67894782	     93.83727056	     -9.07157919	    -16.69301945	      0.50417136	     24.65354588	     96.65046482
      1.58333330	     -4.63496453	      1.13098469	      1.20108229	      0.24848717	      1.23973632	     -0.55714673	      6.62026978	     -0.67798796	     -0.61280324	      7.72928386	      0.13490145	      7.06440045	     -4.84920520	     -7.49999987	      2.51231470	     -0.88775614	     -1.06031994	      4.84813806	      0.08461597	      8.27429719	     -1.62785811	     -7.49999987	     -4.94364997	     -2.45035003	     -1.86595384	     -4.05283441	    -14.42684911	     10.14500593	     28.84131957	     92.29569045	     -9.36781934	    -16.76623866	      0.16494192	     25.80673373	     95.05878276
      1.60000000	     -5.18409476	      1.06896493	      1.28717642	      0.25009001	      1.23909239	     -0.55726142	      7.50817625	     -0.62548975	     -0.70826216	      8.20053763	      0.14312638	      7.03526922	     -5.02445943	     -7.49999987	      3.51822057	     -1.02201928	     -1.26295303	      5.48415894	      0.09571663	      8.60966256	     -1.32506759	     -7.49999987	     -5.18187265	     -2.47159611	     -1.85996140	     -4.02265852	    -14.17657994	      9.26020335	     27.57752820	     95.83542666	     -8.89904368	    -15.96087901	     -4.33674166	     24.49074985	    100.18100620
      1.61666670	     -5.77228145	      1.05001944	      1.30964139	      0.24967145	      1.23842402	     -0.55754974	      8.43195300	     -0.63547137	     -0.86636235	      8.65091784	      0.15098700	      7.02299413	     -5.15035516	     -7.49999987	      4.56152308	     -1.09299428	     -1.36501458	      6.13153520	      0.10701548	      8.73660826	     -1.41988788	     -7.49999987	     -5.47894799	     -2.47627492	     -1.65938402	     -4.39919919	    -14.29563629	      9.47603108	     27.55563366	     95.25871309	     -8.91560470	    -15.99904847	     -4.22256854	     24.39400143	     99.96961835
      1.63333330	     -6.21857642	      1.03234966	      1.34345228	      0.25110781	      1.23787180	     -0.55755805	      9.15203973	     -0.62336531	     -0.92151476	      9.03789882	      0.15774109	      7.04262052	     -5.15904925	     -7.49999987	      5.44138303	     -1.16093233	     -1.52323883	      6.72093847	      0.11730251	      8.82579404	     -1.32388273	     -7.49999987	     -6.00915463	     -2.50246936	     -1.54546166	     -4.74595760	    -14.39343301	      9.51109977	     27.72052688	     93.23798121	     -8.99446404	    -15.93737762	     -4.60163011	     24.46374369	     98.05965216
      1.65000000	     -6.69828339	      1.04696945	      1.39110623	      0.25076482	      1.23725852	     -0.55784712	      9.88169749	     -0.66084466	     -1.01288706	      9.32968205	      0.16283367	      7.06757292	     -5.23861885	     -7.49999987	      6.25362167	     -1.16967602	     -1.66657398	      7.19133629	      0.12551250	      8.83053867	     -1.24722365	     -7.49999987	     -6.63806534	     -2.51731422	     -1.55678544	     -4.86718740	    -14.85914431	     10.44305461	     28.16945966	     94.40173876	     -8.98144388	    -15.94960514	     -3.51820617	     25.71121259	     99.58404313
      1.66666670	     -7.25346317	      1.03811135	      1.37391575	      0.25233538	      1.23650062	     -0.55788357	     10.68614642	     -0.68443285	     -1.13578748	      9.65083445	      0.16843884	      7.19617149	     -5.03409062	     -7.49999987	      7.19052312	     -1.20547511	     -1.74733695	      7.70043977	      0.13439803	      8.96311983	     -1.28333396	     -7.49999987	     -7.10063482	     -2.50151293	     -1.63679018	     -5.11979482	    -15.01353667	     10.28171915	     28.15387753	     92.26791503	     -8.79603320	    -15.90679527	     -3.05249557	     26.57716991	     97.65373284
